<?xml version="1.0" encoding="iso-8859-1"?>
<!-- Generator: Adobe Illustrator 19.0.0, SVG Export Plug-In . SVG Version: 6.00 Build 0)  -->
<svg version="1.1" id="Layer_1" xmlns="http://www.w3.org/2000/svg" xmlns:xlink="http://www.w3.org/1999/xlink" x="0px" y="0px"
	 viewBox="0 0 512 512" style="enable-background:new 0 0 512 512;" xml:space="preserve">
<ellipse style="fill:#25B6D2;" cx="256" cy="256" rx="256" ry="255.832"/>
<rect x="74.136" y="136.8" style="fill:#FFFFFF;" width="245.688" height="207.328"/>
<g>
	<rect x="319.832" y="219.104" style="fill:#C5D2D8;" width="117.64" height="125.016"/>
	<polygon style="fill:#C5D2D8;" points="319.824,136.792 378.648,136.792 437.472,219.104 319.824,219.104 	"/>
</g>
<polygon style="fill:#FFFFFF;" points="399.928,166.568 339.416,166.568 339.416,240.456 399.928,240.456 416.176,256.712 
	437.472,256.712 437.472,219.104 "/>
<g>
	<polygon style="fill:#E04F5F;" points="437.464,301.944 391.016,301.944 365.712,276.64 74.136,276.64 74.136,263.04 
		371.352,263.04 396.656,288.352 437.464,288.352 	"/>
	<rect x="186.184" y="166.568" style="fill:#E04F5F;" width="21.592" height="67.296"/>
	<rect x="163.344" y="189.416" style="fill:#E04F5F;" width="67.288" height="21.6"/>
</g>
<rect x="289.6" y="118.448" style="fill:#C5D2D8;" width="42.448" height="18.344"/>
<g>
	<rect x="55.368" y="286.824" style="fill:#415E72;" width="18.896" height="35.32"/>
	<rect x="437.736" y="286.824" style="fill:#415E72;" width="18.896" height="35.32"/>
</g>
<rect x="332.072" y="118.448" style="fill:#FFFFFF;" width="21.224" height="18.344"/>
<g>
	<circle style="fill:#415E72;" cx="146.056" cy="349.016" r="44.536"/>
	<circle style="fill:#415E72;" cx="365.936" cy="349.016" r="44.536"/>
</g>
<g>
	<circle style="fill:#FFFFFF;" cx="146.056" cy="349.016" r="15.92"/>
	<circle style="fill:#FFFFFF;" cx="365.936" cy="349.016" r="15.92"/>
</g>
<g>
</g>
<g>
</g>
<g>
</g>
<g>
</g>
<g>
</g>
<g>
</g>
<g>
</g>
<g>
</g>
<g>
</g>
<g>
</g>
<g>
</g>
<g>
</g>
<g>
</g>
<g>
</g>
<g>
</g>
</svg>
